<svg width="64" height="64" viewBox="0 0 64 64" fill="none" xmlns="http://www.w3.org/2000/svg">
<rect width="64" height="64" fill="white"/>
<path d="M5.288 42.5V38.944H7.136V26.428H5.288V22.9H12.4C14.808 22.9 16.6 23.4693 17.776 24.608C18.9707 25.7467 19.568 27.492 19.568 29.844V35.556C19.568 37.908 18.9707 39.6533 17.776 40.792C16.6 41.9307 14.808 42.5 12.4 42.5H5.288ZM10.832 38.972H12.4C13.688 38.972 14.584 38.6733 15.088 38.076C15.6107 37.46 15.872 36.508 15.872 35.22V29.844C15.872 28.724 15.6107 27.8747 15.088 27.296C14.584 26.7173 13.688 26.428 12.4 26.428H10.832V38.972ZM24.8405 42.5L24.1685 22.9H27.5285L27.9765 37.796V40.316H28.6485V37.796L29.5445 22.9H35.4805L36.3765 37.796V40.316H37.0485V37.796L37.4965 22.9H40.8565L40.1845 42.5H33.7445L32.8485 27.604V24.916H32.1765V27.604L31.2805 42.5H24.8405ZM46.3531 42.5V22.9H58.8971V26.428H50.0491V30.908H58.7291V34.436H50.0491V42.5H46.3531Z" fill="#4040C4"/>
</svg>
